<svg xmlns="http://www.w3.org/2000/svg" viewBox="0 0 201.88 103.03"><defs><style>.cls-1{fill:#fff;}</style></defs><g id="Layer_2" data-name="Layer 2"><g id="Layer_1-2" data-name="Layer 1"><path class="cls-1" d="M37.55,103A35,35,0,0,1,10.8,91.49Q0,79.91,0,62.83,0,45.52,10.8,34A35.4,35.4,0,0,1,37.62,22.56c10.44,0,18.6,3.75,24.48,11.32V24.69H82.16v76.13H62.1V91.49Q53.28,103,37.62,103ZM41,85.1a20.78,20.78,0,0,0,15.43-6.4c4.19-4.26,6.24-9.62,6.24-16.16s-2-11.69-6.24-15.88A21.06,21.06,0,0,0,41,40.34a20.5,20.5,0,0,0-15.44,6.25c-4,4.19-6,9.55-6,16.09s2,12.06,6,16.24A20.55,20.55,0,0,0,41,85.24Z"/><path class="cls-1" d="M112.37,36q7.5-14.77,25.13-12.35V42.33q-12.45-2-18.74,4.19c-4.19,4.11-6.32,11.17-6.32,21.16v33.14H92.6V24.69h19.84V35.93Z"/><path class="cls-1" d="M201.88,98.4a47.56,47.56,0,0,1-17.79,3.6c-8.45,0-14.77-2.43-19-7.2s-6.39-11.47-6.39-20V42.11H145.88V24.69h12.79V0h20V24.69h22.27V42.11H178.65v32.7c0,6.39,3.09,9.63,9.34,9.63a20,20,0,0,0,9-2.14Z"/></g></g></svg>